<svg width="87" height="87" viewBox="0 0 87 87" fill="none" xmlns="http://www.w3.org/2000/svg">
<path d="M81.0668 74.8509C84.3383 74.8509 87 72.1893 87 68.9176V8.49609C87 3.81135 83.1887 0 78.5039 0H8.49609C3.81135 0 0 3.81135 0 8.49609V68.9176C0 72.1893 2.66166 74.8509 5.93316 74.8509H7.81641V83.6016H1.69922C0.76074 83.6016 0 84.3625 0 85.3008C0 86.2391 0.76074 87 1.69922 87H85.3008C86.2393 87 87 86.2391 87 85.3008C87 84.3625 86.2393 83.6016 85.3008 83.6016H79.1836V74.8509H81.0668ZM3.39844 8.49609C3.39844 5.68525 5.68525 3.39844 8.49609 3.39844H78.5039C81.3148 3.39844 83.6016 5.68525 83.6016 8.49609V12.2344H3.56904C3.51144 12.2344 3.45451 12.2374 3.39844 12.243V8.49609ZM18.6914 83.6016H11.2148V68.3086H18.6914V83.6016ZM37.7227 83.6016H30.2461V49.5207H37.7227V83.6016ZM56.7539 83.6016H49.2773V63.8906H56.7539V83.6016ZM77.4844 43.585H66.6094C65.6709 43.585 64.9102 44.3459 64.9102 45.2842V53.8651C64.9102 54.8034 65.6709 55.5643 66.6094 55.5643C67.5479 55.5643 68.3086 54.8034 68.3086 53.8651V46.9834H75.7852V83.6016H68.3086V65.2925C68.3086 64.3542 67.5479 63.5933 66.6094 63.5933C65.6709 63.5933 64.9102 64.3542 64.9102 65.2925V83.6016H60.1523V62.1914C60.1523 61.2531 59.3916 60.4922 58.4531 60.4922H47.5781C46.6396 60.4922 45.8789 61.2531 45.8789 62.1914V83.6016H41.1211V47.8215C41.1211 46.8831 40.3604 46.1222 39.4219 46.1222H28.5469C27.6084 46.1222 26.8477 46.8831 26.8477 47.8215V83.6016H22.0898V66.6094C22.0898 65.6711 21.3291 64.9102 20.3906 64.9102H9.51562C8.57715 64.9102 7.81641 65.6711 7.81641 66.6094V71.4525H5.93316C4.53538 71.4525 3.39844 70.3154 3.39844 68.9176V15.6241C3.45451 15.6298 3.51144 15.6328 3.56904 15.6328H83.6016V68.9176C83.6016 70.3154 82.4644 71.4525 81.0668 71.4525H79.1836V45.2842C79.1836 44.3459 78.4229 43.585 77.4844 43.585Z" fill="#FFF4E5"/>
<path d="M76.125 6.11719H37.7337C36.7952 6.11719 36.0345 6.8781 36.0345 7.81641C36.0345 8.75471 36.7952 9.51562 37.7337 9.51562H76.125C77.0635 9.51562 77.8242 8.75471 77.8242 7.81641C77.8242 6.8781 77.0635 6.11719 76.125 6.11719Z" fill="#FFF4E5"/>
<path d="M18.8732 6.61506C18.5572 6.299 18.1188 6.11719 17.6719 6.11719C17.225 6.11719 16.7866 6.29883 16.4705 6.61506C16.1545 6.93111 15.9727 7.36951 15.9727 7.81641C15.9727 8.2633 16.1545 8.7017 16.4705 9.01758C16.7866 9.33381 17.225 9.51562 17.6719 9.51562C18.1188 9.51562 18.5572 9.33381 18.8732 9.01758C19.1893 8.7017 19.3711 8.2633 19.3711 7.81641C19.3711 7.36951 19.1893 6.93111 18.8732 6.61506Z" fill="#FFF4E5"/>
<path d="M12.0763 6.61506C11.7603 6.299 11.3219 6.11719 10.875 6.11719C10.4281 6.11719 9.98971 6.29883 9.67365 6.61506C9.3576 6.93111 9.17578 7.36951 9.17578 7.81641C9.17578 8.2633 9.3576 8.7017 9.67365 9.01758C9.98971 9.33381 10.4281 9.51562 10.875 9.51562C11.3219 9.51562 11.7603 9.33381 12.0763 9.01758C12.3924 8.7017 12.5742 8.2633 12.5742 7.81641C12.5742 7.36951 12.3924 6.93111 12.0763 6.61506Z" fill="#FFF4E5"/>
<path d="M25.6701 6.61506C25.354 6.299 24.9173 6.11719 24.4688 6.11719C24.0219 6.11719 23.5835 6.29883 23.2674 6.61506C22.9513 6.93111 22.7695 7.36951 22.7695 7.81641C22.7695 8.2633 22.9513 8.7017 23.2674 9.01758C23.5835 9.33381 24.0219 9.51562 24.4688 9.51562C24.9156 9.51562 25.354 9.33381 25.6701 9.01758C25.9862 8.7017 26.168 8.2633 26.168 7.81641C26.168 7.36951 25.9862 6.93111 25.6701 6.61506Z" fill="#FFF4E5"/>
<path d="M67.8107 58.7199C67.4947 58.4021 67.0563 58.222 66.6094 58.222C66.1625 58.222 65.7241 58.4023 65.408 58.7199C65.092 59.036 64.9102 59.4744 64.9102 59.9213C64.9102 60.3681 65.092 60.8065 65.408 61.1226C65.7241 61.4385 66.1625 61.6205 66.6094 61.6205C67.0563 61.6205 67.4947 61.4387 67.8107 61.1226C68.1268 60.8065 68.3086 60.3681 68.3086 59.9213C68.3086 59.4727 68.1268 59.036 67.8107 58.7199Z" fill="#FFF4E5"/>
<path d="M72.0469 23.099C68.6738 23.099 65.9297 25.8431 65.9297 29.2162C65.9297 30.556 66.3638 31.7958 67.0972 32.8046L55.8102 44.0917C54.9342 43.6069 53.9279 43.3299 52.8578 43.3299C51.8935 43.3299 50.981 43.555 50.1689 43.9542L38.3833 32.1686C38.8681 31.2926 39.1451 30.2864 39.1451 29.2162C39.1451 25.8431 36.401 23.099 33.0279 23.099C29.6548 23.099 26.9107 25.8431 26.9107 29.2162C26.9107 30.3951 27.2468 31.4965 27.8269 32.4315L17.7925 42.4657C16.9166 41.9809 15.9103 41.7039 14.8403 41.7039C11.4672 41.7039 8.72311 44.448 8.72311 47.8211C8.72311 51.1942 11.4672 53.9383 14.8403 53.9383C18.2134 53.9383 20.9575 51.1942 20.9575 47.8211C20.9575 46.7509 20.6805 45.7447 20.1957 44.8687L30.3499 34.7145C31.1593 35.1103 32.068 35.3332 33.0279 35.3332C34.0979 35.3332 35.1042 35.0562 35.9801 34.5714L47.6503 46.2415C47.0741 47.1744 46.7406 48.2721 46.7406 49.4468C46.7406 52.8199 49.4846 55.5639 52.8578 55.5639C56.2309 55.5639 58.975 52.8199 58.975 49.4468C58.975 48.3766 58.698 47.3703 58.2132 46.4944L69.8027 34.9048C70.4982 35.1805 71.2549 35.3334 72.0469 35.3334C75.42 35.3334 78.1641 32.5893 78.1641 29.2162C78.1641 25.8431 75.42 23.099 72.0469 23.099ZM14.8405 50.5402C13.3414 50.5402 12.1217 49.3205 12.1217 47.8214C12.1217 46.3224 13.3414 45.1027 14.8405 45.1027C16.3395 45.1027 17.5592 46.3224 17.5592 47.8214C17.5592 49.3205 16.3395 50.5402 14.8405 50.5402ZM33.0281 31.9349C31.529 31.9349 30.3093 30.7152 30.3093 29.2162C30.3093 27.7171 31.529 26.4974 33.0281 26.4974C34.5271 26.4974 35.7468 27.7171 35.7468 29.2162C35.7468 30.7152 34.5271 31.9349 33.0281 31.9349ZM52.8579 52.1658C51.3589 52.1658 50.1392 50.9461 50.1392 49.4471C50.1392 47.948 51.3589 46.7283 52.8579 46.7283C54.357 46.7283 55.5767 47.948 55.5767 49.4471C55.5767 50.9461 54.357 52.1658 52.8579 52.1658ZM72.0469 31.9349C70.5478 31.9349 69.3281 30.7152 69.3281 29.2162C69.3281 27.7171 70.5478 26.4974 72.0469 26.4974C73.5459 26.4974 74.7656 27.7171 74.7656 29.2162C74.7656 30.7152 73.5459 31.9349 72.0469 31.9349Z" fill="#FFF4E5"/>
<path d="M25.2045 21.9116C24.8868 21.5955 24.4501 21.4136 24.0032 21.4136C23.5546 21.4136 23.1162 21.5954 22.8001 21.9116C22.4841 22.2275 22.3039 22.6659 22.3039 23.1128C22.3039 23.5597 22.4841 23.9981 22.8001 24.3141C23.1179 24.6302 23.5546 24.812 24.0032 24.812C24.4501 24.812 24.8868 24.6304 25.2045 24.3141C25.5206 23.9981 25.7024 23.5597 25.7024 23.1128C25.7024 22.6659 25.5206 22.2275 25.2045 21.9116Z" fill="#FFF4E5"/>
<path d="M17.6719 21.4137H9.51562C8.57715 21.4137 7.81641 22.1746 7.81641 23.1129C7.81641 24.0513 8.57715 24.8122 9.51562 24.8122H17.6719C18.6104 24.8122 19.3711 24.0513 19.3711 23.1129C19.3711 22.1746 18.6104 21.4137 17.6719 21.4137Z" fill="#FFF4E5"/>
<path d="M17.6719 29.57H9.51562C8.57715 29.57 7.81641 30.3309 7.81641 31.2692C7.81641 32.2075 8.57715 32.9684 9.51562 32.9684H17.6719C18.6104 32.9684 19.3711 32.2075 19.3711 31.2692C19.3711 30.3309 18.6104 29.57 17.6719 29.57Z" fill="#FFF4E5"/>
</svg>
