<svg width="87" height="87" viewBox="0 0 87 87" fill="none" xmlns="http://www.w3.org/2000/svg">
<path d="M25.6582 20.3906C25.6582 14.7689 21.0846 10.1953 15.4629 10.1953C9.8412 10.1953 5.26758 14.7689 5.26758 20.3906C5.26758 26.0123 9.8412 30.5859 15.4629 30.5859C21.0846 30.5859 25.6582 26.0123 25.6582 20.3906ZM15.4629 25.4883C12.652 25.4883 10.3652 23.2015 10.3652 20.3906C10.3652 17.5798 12.652 15.293 15.4629 15.293C18.2737 15.293 20.5605 17.5798 20.5605 20.3906C20.5605 23.2015 18.2737 25.4883 15.4629 25.4883Z" fill="#FFF4E5"/>
<path d="M81.7324 20.3906C81.7324 14.7689 77.1588 10.1953 71.5371 10.1953C65.9154 10.1953 61.3418 14.7689 61.3418 20.3906C61.3418 26.0123 65.9154 30.5859 71.5371 30.5859C77.1588 30.5859 81.7324 26.0123 81.7324 20.3906ZM71.5371 25.4883C68.7263 25.4883 66.4395 23.2015 66.4395 20.3906C66.4395 17.5798 68.7263 15.293 71.5371 15.293C74.348 15.293 76.6348 17.5798 76.6348 20.3906C76.6348 23.2015 74.348 25.4883 71.5371 25.4883Z" fill="#FFF4E5"/>
<path d="M71.5371 30.5859C66.8281 30.5859 62.6101 32.7259 59.8025 36.0838C57.0193 29.8466 50.7594 25.4883 43.5 25.4883C36.2406 25.4883 29.9807 29.8466 27.1975 36.0838C24.3899 32.7259 20.1719 30.5859 15.4629 30.5859C6.98124 30.5859 0 37.4545 0 45.8789V58.623C0 60.0307 1.1412 61.1719 2.54883 61.1719H5.33674L7.65889 84.7015C7.78752 86.0058 8.88453 87 10.1953 87H20.5605C21.8713 87 22.9683 86.0058 23.097 84.7015L25.4191 61.1719H33.9305L35.8622 84.66C35.9708 85.9823 37.0756 87 38.4023 87H48.5977C49.9244 87 51.0292 85.9823 51.1378 84.66L53.0697 61.1719H61.5809L63.9029 84.7015C64.0317 86.0058 65.1287 87 66.4395 87H76.8047C78.1155 87 79.2125 86.0058 79.3413 84.7015L81.6633 61.1719H84.4512C85.8588 61.1719 87 60.0307 87 58.623V45.8789C87 37.4645 80.0276 30.5859 71.5371 30.5859ZM23.1094 56.0742C21.7986 56.0742 20.7016 57.0684 20.573 58.3728L18.2508 81.9023H12.5051L10.1829 58.3728C10.0543 57.0684 8.95726 56.0742 7.64648 56.0742H5.09766V45.8789C5.09766 40.2572 9.7474 35.6836 15.4629 35.6836C21.0846 35.6836 25.6582 40.2572 25.6582 45.8789V56.0742H23.1094ZM50.7219 56.0742C49.3951 56.0742 48.2903 57.0919 48.1817 58.4142L46.2498 81.9023H40.7502L38.8185 58.4142C38.7097 57.092 37.6049 56.0742 36.2781 56.0742H30.7559V43.3301C30.7559 37.1757 35.1412 32.0265 40.9512 30.8424V43.3301C40.9512 44.7377 42.0924 45.8789 43.5 45.8789C44.9076 45.8789 46.0488 44.7377 46.0488 43.3301V30.8424C51.8588 32.0264 56.2441 37.1755 56.2441 43.3301V56.0742H50.7219ZM81.9023 56.0742H79.3535C78.0427 56.0742 76.9457 57.0684 76.8169 58.3728L74.4949 81.9023H68.7492L66.4272 58.3728C66.2984 57.0684 65.2014 56.0742 63.8906 56.0742H61.3418V45.8789C61.3418 40.2572 65.9154 35.6836 71.5371 35.6836C77.2526 35.6836 81.9023 40.2572 81.9023 45.8789V56.0742Z" fill="#FFF4E5"/>
<path d="M56.2441 12.7441C56.2441 5.71702 50.5271 0 43.5 0C36.4729 0 30.7559 5.71702 30.7559 12.7441C30.7559 19.7713 36.4729 25.4883 43.5 25.4883C50.5271 25.4883 56.2441 19.7713 56.2441 12.7441ZM43.5 20.3906C39.2837 20.3906 35.8535 16.9604 35.8535 12.7441C35.8535 8.52787 39.2837 5.09766 43.5 5.09766C47.7163 5.09766 51.1465 8.52787 51.1465 12.7441C51.1465 16.9604 47.7163 20.3906 43.5 20.3906Z" fill="#FFF4E5"/>
</svg>
