<svg width="87" height="87" viewBox="0 0 87 87" fill="none" xmlns="http://www.w3.org/2000/svg">
<path d="M53.2138 35.4186L40.1352 47.7651L33.8584 41.311C33.1626 40.595 32.0168 40.5787 31.3011 41.2742C30.5847 41.9704 30.5684 43.1149 31.2643 43.8309L38.7924 51.5548C39.4918 52.2581 40.622 52.2822 41.3505 51.6087L55.7357 38.0475C56.0851 37.7182 56.2891 37.2635 56.3026 36.784C56.3161 36.3046 56.1382 35.8393 55.808 35.4908C55.1079 34.7635 53.9536 34.7316 53.2138 35.4186Z" fill="#FFF4E5"/>
<path d="M43.5089 16.4176C28.5617 16.4176 16.4078 28.5651 16.4078 43.5044C16.4078 58.4445 28.5617 70.592 43.5089 70.592C58.4567 70.592 70.6106 58.4445 70.6106 43.5044C70.6106 28.5651 58.4567 16.4176 43.5089 16.4176ZM43.5089 66.9659C30.5571 66.9659 20.0358 56.4317 20.0358 43.5044C20.0358 30.5772 30.5571 20.0437 43.5089 20.0437C56.4734 20.0437 66.9826 30.5474 66.9826 43.5044C66.9826 56.4614 56.4734 66.9659 43.5089 66.9659Z" fill="#FFF4E5"/>
<path d="M80.8053 33.5326L81.404 22.781C81.4458 22.0593 81.0533 21.3815 80.4063 21.0586L70.8282 16.2179L65.9849 6.64476C65.6554 6.00382 64.9815 5.61358 64.2616 5.64758L53.4859 6.22832L44.5066 0.299049C43.9014 -0.0996829 43.117 -0.0996829 42.5111 0.299049L33.5318 6.22832L22.7753 5.62987C22.0525 5.58738 21.3751 5.97974 21.0519 6.62706L16.208 16.2002L6.63054 21.0409C5.98855 21.3695 5.59882 22.043 5.63283 22.7633L6.23089 33.5149L0.299206 42.4895C-0.0997353 43.0944 -0.0997353 43.8784 0.299206 44.4839L6.21317 53.4763L5.61441 64.2279C5.5726 64.9495 5.96445 65.6273 6.61211 65.9503L16.1902 70.791L21.0335 80.3641C21.3623 81.0057 22.0362 81.3953 22.7568 81.3613L33.5141 80.7628L42.4934 86.6914C43.095 87.1029 43.8872 87.1029 44.4888 86.6914L53.4682 80.7628L64.2254 81.3613C64.9475 81.4031 65.6249 81.0107 65.9488 80.3641L70.792 70.791L80.3702 65.9503C81.0115 65.6209 81.4019 64.9481 81.3679 64.2279L80.7691 53.4763L86.7008 44.5016C87.0997 43.8968 87.0997 43.1121 86.7008 42.5072L80.8053 33.5326ZM77.4309 51.9897C77.2098 52.3141 77.1071 52.7043 77.1411 53.0959L77.703 63.2668L68.6514 67.8356C68.3063 68.0084 68.0264 68.2888 67.8535 68.6337L63.2816 77.6806L53.1054 77.119C52.7157 77.1048 52.3309 77.2054 51.9986 77.4087L43.5089 83.0114L35.0198 77.4087C34.7251 77.2096 34.3779 77.102 34.0221 77.1006H33.9314L23.7545 77.6629L19.1834 68.6153C19.0105 68.2704 18.7306 67.9907 18.3848 67.8179L9.31471 63.2668L9.87734 53.0959C9.89151 52.7064 9.79018 52.3219 9.58681 51.9897L3.98179 43.5044L9.58681 35.0192C9.8086 34.6955 9.91135 34.3046 9.87734 33.9136L9.31471 23.7421L18.3671 19.1733C18.7121 19.0005 18.992 18.7207 19.1649 18.3758L23.7361 9.32823L33.913 9.89056C34.302 9.90402 34.6868 9.80345 35.0198 9.60019L43.5089 3.99812L51.9986 9.60019C52.3231 9.82187 52.7143 9.92456 53.1054 9.89056L63.2816 9.32823L67.8535 18.3758C68.0264 18.7207 68.3063 19.0005 68.6514 19.1733L77.703 23.7421L77.1411 33.9136C77.1269 34.3024 77.2282 34.687 77.4309 35.0192L83.0366 43.5044L77.4309 51.9897Z" fill="#FFF4E5"/>
</svg>
